# xmcd
#
# Track frame offsets:
#	150
#	12276
#	33314
#	53166
#	74622
#	98935
#	119515
#	140860
#	160409
#	182138
#	204046
#
# Disc length: 3024 seconds
#
# Revision: 1
# Processed by: cddbd v1.5.2PL0 Copyright (c) Steve Scherf et al.
# Submitted via: audiograbber 1.83.01
#
DISCID=9e0bce0b
DTITLE=Foeticide - Inside My Blood
DYEAR=2008
DGENRE=Death Metal
TTITLE0=In This War
TTITLE1=Inside My Blood
TTITLE2=Resistance
TTITLE3=Impiodissector
TTITLE4=Born in Blood
TTITLE5=Rebellion
TTITLE6=Mechanical Mind
TTITLE7=War and Flesh
TTITLE8=Slither Death
TTITLE9=Extinction
TTITLE10=Frozen
EXTD=
EXTT0=
EXTT1=
EXTT2=
EXTT3=
EXTT4=
EXTT5=
EXTT6=
EXTT7=
EXTT8=
EXTT9=
EXTT10=
PLAYORDER=
